<svg width="37" height="49" viewBox="0 0 37 49" fill="none" xmlns="http://www.w3.org/2000/svg">
<rect x="-0.5" y="0.5" width="35.7491" height="47.9988" transform="matrix(-1 0 0 1 35.749 0)" stroke="#2C9CF0"/>
<path d="M13.5945 33.6407C13.3245 33.3706 13.1727 33.0043 13.1727 32.6223C13.1727 32.2403 13.3245 31.874 13.5945 31.6038L20.7251 24.4733L13.5945 17.3428C13.3321 17.0711 13.1869 16.7072 13.1902 16.3295C13.1935 15.9518 13.345 15.5905 13.6121 15.3234C13.8791 15.0563 14.2404 14.9048 14.6181 14.9016C14.9958 14.8983 15.3597 15.0435 15.6314 15.3059L23.7804 23.4549C24.0504 23.725 24.2021 24.0913 24.2021 24.4733C24.2021 24.8553 24.0504 25.2216 23.7804 25.4917L15.6314 33.6407C15.3613 33.9108 14.9949 34.0625 14.613 34.0625C14.231 34.0625 13.8646 33.9108 13.5945 33.6407Z" fill="#2C9CF0"/>
</svg>
