<svg width="37" height="49" viewBox="0 0 37 49" fill="none" xmlns="http://www.w3.org/2000/svg">
<rect x="0.5" y="0.5" width="35.7491" height="47.9988" stroke="#2C9CF0"/>
<path d="M23.1545 33.6407C23.4246 33.3706 23.5763 33.0043 23.5763 32.6223C23.5763 32.2403 23.4246 31.874 23.1545 31.6038L16.024 24.4733L23.1545 17.3428C23.4169 17.0711 23.5621 16.7072 23.5588 16.3295C23.5555 15.9518 23.404 15.5905 23.137 15.3234C22.8699 15.0563 22.5086 14.9048 22.1309 14.9016C21.7532 14.8983 21.3893 15.0435 21.1176 15.3059L12.9686 23.4549C12.6986 23.725 12.5469 24.0913 12.5469 24.4733C12.5469 24.8553 12.6986 25.2216 12.9686 25.4917L21.1176 33.6407C21.3878 33.9108 21.7541 34.0625 22.1361 34.0625C22.518 34.0625 22.8844 33.9108 23.1545 33.6407Z" fill="#2C9CF0"/>
</svg>
